<?xml version="1.0" encoding="UTF-8" standalone="no"?>
<svg width="28px" height="19px" viewBox="0 0 28 19" version="1.1" xmlns="http://www.w3.org/2000/svg" xmlns:xlink="http://www.w3.org/1999/xlink" xmlns:sketch="http://www.bohemiancoding.com/sketch/ns">
    <!-- Generator: Sketch 3.3.3 (12072) - http://www.bohemiancoding.com/sketch -->
    <title>Artboard 1</title>
    <desc>Created with Sketch.</desc>
    <defs></defs>
    <g id="Page-1" stroke="none" stroke-width="1" fill="none" fill-rule="evenodd" sketch:type="MSPage">
        <g id="Artboard-1" sketch:type="MSArtboardGroup" fill="#FFFFFF">
            <g id="Ãcono" sketch:type="MSLayerGroup" transform="translate(1.000000, 1.000000)">
                <path d="M0,2.94542854 C0,1.84031554 0.720531687,1.47519013 1.613988,2.13331258 L11.4417807,9.37249254 C12.3331617,10.0290863 13.7701448,10.030615 14.6689923,9.36281626 L24.3867764,2.14298886 C25.2777352,1.48105106 26,1.83053065 26,2.94542854 L26,14.9990159 C26,16.1041289 25.1050211,17 24.0029953,17 L1.99700466,17 C0.89408944,17 0,16.1139138 0,14.9990159 L0,2.94542854 Z" id="Bottom" sketch:type="MSShapeGroup"></path>
                <path d="M24.0029953,0 C25.1059106,0 25.2606001,0.521528955 24.3727485,1.14776692 L14.5704626,8.0617193 C13.6717565,8.69561347 12.2102431,8.68795726 11.3170502,8.05242353 L1.62616093,1.15706269 C0.728057048,0.518034611 0.894978851,0 1.99700466,0 L24.0029953,0 Z" id="Top" sketch:type="MSShapeGroup"></path>
            </g>
        </g>
    </g>
</svg>
