<?xml version="1.0" encoding="UTF-8" standalone="no"?>
<svg width="27px" height="24px" viewBox="0 0 27 24" version="1.1" xmlns="http://www.w3.org/2000/svg" xmlns:xlink="http://www.w3.org/1999/xlink" xmlns:sketch="http://www.bohemiancoding.com/sketch/ns">
    <!-- Generator: Sketch 3.3.3 (12072) - http://www.bohemiancoding.com/sketch -->
    <title>Artboard 1</title>
    <desc>Created with Sketch.</desc>
    <defs></defs>
    <g id="Page-1" stroke="none" stroke-width="1" fill="none" fill-rule="evenodd" sketch:type="MSPage">
        <g id="Artboard-1" sketch:type="MSArtboardGroup" fill="#45576A">
            <g id="Ãcono-(B)" sketch:type="MSLayerGroup" transform="translate(1.000000, 1.000000)">
                <path d="M10.8219553,16.1427632 L1.53631285,16.1427632 C1.31659218,16.1427632 1.10399441,16.1123401 0.901927374,16.0567582 L0.901927374,20.4751285 C0.901927374,21.3167531 1.58977654,21.9990579 2.43824022,21.9990579 L22.5460335,21.9990579 C23.3944972,21.9990579 24.0823464,21.3167531 24.0823464,20.4751285 L24.0823464,16.0567028 C23.8802793,16.1123401 23.6676536,16.1427078 23.4479609,16.1427078 L14.1622905,16.1427078 C14.1628212,16.1548161 14.1632123,16.1668967 14.1632123,16.1790882 L14.1632123,17.1745189 C14.1632123,17.6335819 13.7879888,18.0057531 13.3252235,18.0057531 L11.6590223,18.0057531 C11.196257,18.0057531 10.8210335,17.6335819 10.8210335,17.1745189 L10.8210335,16.1790882 C10.8210335,16.1668967 10.8214525,16.1548161 10.8219553,16.1427632 L10.8219553,16.1427632 Z" id="Shape" sketch:type="MSShapeGroup"></path>
                <path d="M0,4.73152393 L0,13.7875995 C0,14.4047355 0.370083799,14.9358388 0.901927374,15.1754836 C1.09536313,15.2626524 1.31002793,15.311529 1.53631285,15.311529 L23.4479888,15.311529 C23.6743296,15.311529 23.8889106,15.262597 24.0823743,15.1754836 C24.6141899,14.9358942 24.9843017,14.4047909 24.9843017,13.7875995 L24.9843017,4.73152393 C24.9843017,3.88987154 24.2964525,3.20759446 23.4479888,3.20759446 L17.9949162,3.20759446 L17.9949162,2.79197733 L17.9949162,2.3763602 L17.9949162,1.6755466 C17.9949162,0.758861461 17.2430726,0.0130780856 16.3189385,0.0130780856 L8.66530726,0.0130780856 C7.74117318,0.0130780856 6.98932961,0.758861461 6.98932961,1.6755466 L6.98932961,2.3763602 L6.98932961,2.79197733 L6.98932961,3.20759446 L1.53631285,3.20759446 C0.687821229,3.20759446 0,3.88987154 0,4.73152393 L0,4.73152393 Z M8.66530726,2.79197733 L8.66530726,2.3763602 L8.66530726,1.6755466 L16.3189385,1.6755466 L16.3191061,2.3763602 L16.3192458,2.79197733 L16.3193575,3.20759446 L8.66530726,3.20759446 L8.66530726,2.79197733 L8.66530726,2.79197733 Z" id="Shape" sketch:type="MSShapeGroup"></path>
            </g>
        </g>
    </g>
</svg>