<?xml version="1.0" encoding="UTF-8" standalone="no"?>
<svg width="42px" height="22px" viewBox="0 0 42 22" version="1.1" xmlns="http://www.w3.org/2000/svg" xmlns:xlink="http://www.w3.org/1999/xlink" xmlns:sketch="http://www.bohemiancoding.com/sketch/ns">
    <!-- Generator: Sketch 3.3.3 (12072) - http://www.bohemiancoding.com/sketch -->
    <title>Artboard 1</title>
    <desc>Created with Sketch.</desc>
    <defs></defs>
    <g id="Page-1" stroke="none" stroke-width="1" fill="none" fill-rule="evenodd" sketch:type="MSPage">
        <g id="Artboard-1" sketch:type="MSArtboardGroup" fill="#45576A">
            <path d="M40.2941952,20.7169046 L32.6696756,20.7169046 C32.669294,12.4188954 28.5215294,16.3629249 28.5215294,9.09131725 C28.5215294,6.46641537 30.2400198,5.04189105 32.4464826,5.04189105 C35.7067214,5.04189105 37.9756591,8.15466985 34.8883472,13.9753325 C33.8740591,15.8876384 35.9683531,16.341941 38.2183099,16.8610077 C40.4672174,17.3796929 40.2941952,18.5654771 40.2941952,20.7169046 L40.2941952,20.7169046 Z M3.07896219,16.8611031 C5.32891895,16.3421318 7.42321294,15.8877338 6.40892491,13.9754279 C3.321613,8.15476523 5.59055071,5.04198643 8.85078947,5.04198643 C11.0573476,5.04198643 12.7757427,6.46660614 12.7757427,9.09141263 C12.7757427,16.3629249 8.62797803,12.4189908 8.62759651,20.717 L1.00307686,20.717 C1.00307686,18.5654771 0.830054617,17.3796929 3.07896219,16.8611031 L3.07896219,16.8611031 Z M27.9086072,15.8668452 C25.0786348,15.2138627 22.4442902,14.6423361 23.7201146,12.2370981 C27.6035768,4.91541504 24.7494729,1 20.648636,1 C16.4669155,1 13.6832033,5.06564107 17.5772528,12.2370981 C18.8912299,14.6570249 16.1576884,15.2279792 13.3885695,15.8668452 C10.5597418,16.5192554 10.7773072,18.0107376 10.7773072,20.717 L30.5198695,20.717 C30.5198695,18.0106422 30.7375303,16.5192554 27.9086072,15.8668452 L27.9086072,15.8668452 Z" id="Team" sketch:type="MSShapeGroup"></path>
        </g>
    </g>
</svg>