<?xml version="1.0" encoding="UTF-8" standalone="no"?>
<svg width="145px" height="29px" viewBox="0 0 145 29" version="1.1" xmlns="http://www.w3.org/2000/svg" xmlns:xlink="http://www.w3.org/1999/xlink" xmlns:sketch="http://www.bohemiancoding.com/sketch/ns">
    <!-- Generator: Sketch 3.3.3 (12072) - http://www.bohemiancoding.com/sketch -->
    <title>z</title>
    <desc>Created with Sketch.</desc>
    <defs></defs>
    <g id="Page-1" stroke="none" stroke-width="1" fill="none" fill-rule="evenodd" sketch:type="MSPage">
        <g id="z" sketch:type="MSArtboardGroup">
            <g id="Conexión-Facebook" sketch:type="MSLayerGroup" transform="translate(1.000000, 1.000000)">
                <rect id="Back" fill="#3B5998" sketch:type="MSShapeGroup" x="0" y="0" width="143" height="27" rx="3"></rect>
                <text id="Log-in-con-Facebook" sketch:type="MSTextLayer" font-family="Avenir Next" font-size="10" font-weight="normal" fill="#FFFFFF">
                    <tspan x="29" y="17">Log in con </tspan>
                    <tspan x="79.08" y="17" font-weight="420">Facebook</tspan>
                </text>
                <path d="M20.1875,20 L8.8125,20 C8.364,20 8,19.636 8,19.1875 L8,7.8125 C8,7.364 8.364,7 8.8125,7 L20.1875,7 C20.636,7 21,7.364 21,7.8125 L21,19.1875 C21,19.636 20.636,20 20.1875,20 Z" id="Back" fill="#FFFFFF" sketch:type="MSShapeGroup"></path>
                <path d="M16.9375,15.125 L18.5625,15.125 L18.96875,13.09375 L16.9375,13.09375 L16.9375,12.28125 C16.9375,11.46875 17.3445625,11.0625 18.15625,11.0625 L18.96875,11.0625 L18.96875,9.03125 L17.34375,9.03125 C15.8507813,9.03125 14.90625,10.2016562 14.90625,11.875 L14.90625,13.09375 L13.28125,13.09375 L13.28125,15.125 L14.90625,15.125 L14.90625,20 L16.9375,20 L16.9375,15.125 Z" id="Logo" fill="#335599" sketch:type="MSShapeGroup"></path>
            </g>
        </g>
    </g>
</svg>