<?xml version="1.0" encoding="UTF-8" standalone="no"?>
<svg width="15px" height="21px" viewBox="0 0 15 21" version="1.1" xmlns="http://www.w3.org/2000/svg" xmlns:xlink="http://www.w3.org/1999/xlink" xmlns:sketch="http://www.bohemiancoding.com/sketch/ns">
    <!-- Generator: Sketch 3.3.3 (12072) - http://www.bohemiancoding.com/sketch -->
    <title>Artboard 1</title>
    <desc>Created with Sketch.</desc>
    <defs></defs>
    <g id="Page-1" stroke="none" stroke-width="1" fill="none" fill-rule="evenodd" sketch:type="MSPage">
        <g id="Artboard-1" sketch:type="MSArtboardGroup" fill="#45576A">
            <path d="M15.3526786,9.2 L2.53839286,9.2 L5.62183036,6.197 C5.88479018,5.9409 6.00892857,5.6354 6.00892857,5.3 C6.00892857,4.6604 5.46632366,4 4.67410714,4 C4.31971205,4 4.01070089,4.12545 3.75308036,4.377 L-1.55817411,9.5497 C-1.77708482,9.7629 -2,10.02615 -2,10.5 C-2,10.97385 -1.81379241,11.202 -1.56885268,11.44055 L3.75308036,16.623 C4.01070089,16.87455 4.31971205,17 4.67410714,17 C5.46699107,17 6.00892857,16.3396 6.00892857,15.7 C6.00892857,15.3646 5.88479018,15.0591 5.62183036,14.803 L2.53839286,11.8 L15.3526786,11.8 C16.0895,11.8 16.6875,11.2176 16.6875,10.5 C16.6875,9.7824 16.0895,9.2 15.3526786,9.2 L15.3526786,9.2 Z" id="Flecha-B" sketch:type="MSShapeGroup" transform="translate(7.343750, 10.500000) rotate(-270.000000) translate(-7.343750, -10.500000) "></path>
        </g>
    </g>
</svg>