<?xml version="1.0" encoding="UTF-8" standalone="no"?>
<svg width="28px" height="26px" viewBox="0 0 28 26" version="1.1" xmlns="http://www.w3.org/2000/svg" xmlns:xlink="http://www.w3.org/1999/xlink" xmlns:sketch="http://www.bohemiancoding.com/sketch/ns">
    <!-- Generator: Sketch 3.3.3 (12072) - http://www.bohemiancoding.com/sketch -->
    <title>Artboard 1</title>
    <desc>Created with Sketch.</desc>
    <defs></defs>
    <g id="Page-1" stroke="none" stroke-width="1" fill="none" fill-rule="evenodd" sketch:type="MSPage">
        <g id="Artboard-1" sketch:type="MSArtboardGroup" fill="#45576A">
            <path d="M13.909142,23.8457184 L2.72095,18.6877094 C2.75967742,18.711914 1.73098017,18.2463781 1,17.8284446 C1,18.4521175 1.15652335,19.5945766 1.73824156,19.9035892 L12.6924554,24.82762 C13.6598342,25.2842809 14.0777677,25.2842809 15.1266355,24.82762 L26.0800425,19.9035892 C26.6206128,19.6518609 26.818284,18.4666403 26.818284,17.8284446 C26.113929,18.1802187 25.1166978,18.6836753 25.097334,18.6877094 L13.909142,23.8457184 L13.909142,23.8457184 Z M1.73824156,9.58757106 L12.6924554,14.5124087 C13.6598342,14.9682628 14.0777677,14.9682628 15.1266355,14.5124087 L26.0800425,9.58757106 C26.8868639,9.2115923 26.913489,7.61327915 26.0800425,7.15581143 L15.1266355,1.37251581 C14.2657571,0.862604698 13.6598342,0.889229804 12.6924554,1.37251581 L1.73824156,7.15581143 C0.904795078,7.69315447 0.878169972,9.13171698 1.73824156,9.58757106 L1.73824156,9.58757106 Z M1.73824156,14.7463869 L12.6924554,19.669611 C13.6598342,20.1262719 14.0777677,20.1262719 15.1266355,19.669611 L26.0800425,14.7463869 C26.6206128,14.4938519 26.818284,13.3086312 26.818284,12.6704355 C26.113929,13.0230165 25.1166978,13.5256662 25.097334,13.5305071 L13.909142,18.6877094 L2.72095,13.5305071 C2.75967742,13.5539049 1.73098017,13.088369 1,12.6704355 C1,13.2949153 1.15652335,14.4373744 1.73824156,14.7463869 L1.73824156,14.7463869 Z" id="Fill-200-Copy-2" sketch:type="MSShapeGroup"></path>
        </g>
    </g>
</svg>