<?xml version="1.0" encoding="utf-8"?>
<!-- Generator: Adobe Illustrator 16.0.0, SVG Export Plug-In . SVG Version: 6.00 Build 0)  -->
<!DOCTYPE svg PUBLIC "-//W3C//DTD SVG 1.1//EN" "http://www.w3.org/Graphics/SVG/1.1/DTD/svg11.dtd">
<svg version="1.1" id="Capa_1" xmlns="http://www.w3.org/2000/svg" xmlns:xlink="http://www.w3.org/1999/xlink" x="0px" y="0px"
	 width="62.487px" height="61.53px" viewBox="0 0 62.487 61.53" enable-background="new 0 0 62.487 61.53" xml:space="preserve">
<path fill="#BDC5D1" d="M61.301,29.842C61.301,13.362,47.891,0,31.351,0C14.812,0,1.404,13.362,1.404,29.842
	c0,16.483,13.407,29.845,29.946,29.845C47.891,59.687,61.301,46.325,61.301,29.842"/>
<path fill="#FFFFFF" d="M20.41,18.47c2.351,0,4.253,1.907,4.253,4.263c0,2.354-1.902,4.264-4.253,4.264
	c-2.348,0-4.25-1.911-4.25-4.264C16.16,20.377,18.062,18.47,20.41,18.47"/>
<path fill="#FFFFFF" d="M41.668,18.47c2.351,0,4.253,1.907,4.253,4.263c0,2.354-1.902,4.264-4.253,4.264
	c-2.347,0-4.249-1.911-4.249-4.264C37.419,20.377,39.321,18.47,41.668,18.47"/>
<line fill="none" stroke="#FFFFFF" stroke-width="2" stroke-linecap="round" stroke-linejoin="round" x1="19.329" y1="40.496" x2="43.748" y2="40.496"/>
</svg>
