<?xml version="1.0" encoding="utf-8"?>
<!-- Generator: Adobe Illustrator 16.0.0, SVG Export Plug-In . SVG Version: 6.00 Build 0)  -->
<!DOCTYPE svg PUBLIC "-//W3C//DTD SVG 1.1//EN" "http://www.w3.org/Graphics/SVG/1.1/DTD/svg11.dtd">
<svg version="1.1" id="Capa_1" xmlns="http://www.w3.org/2000/svg" xmlns:xlink="http://www.w3.org/1999/xlink" x="0px" y="0px"
	 width="62.487px" height="61.53px" viewBox="0 0 62.487 61.53" enable-background="new 0 0 62.487 61.53" xml:space="preserve">
<path fill="#BDC5D1" d="M61.634,30.345C61.634,13.586,48.002,0,31.183,0C14.364,0,0.73,13.586,0.73,30.345
	c0,16.76,13.634,30.346,30.452,30.346C48.002,60.691,61.634,47.105,61.634,30.345"/>
<path fill="#FFFFFF" d="M20.061,18.779c2.383,0,4.321,1.942,4.321,4.335c0,2.395-1.938,4.337-4.321,4.337
	c-2.391,0-4.327-1.943-4.327-4.337C15.733,20.721,17.67,18.779,20.061,18.779"/>
<path fill="#FFFFFF" d="M41.675,18.779c2.386,0,4.325,1.942,4.325,4.335c0,2.395-1.939,4.337-4.325,4.337
	c-2.388,0-4.326-1.943-4.326-4.337C37.349,20.721,39.287,18.779,41.675,18.779"/>
<path fill="#FFFFFF" d="M30.865,49.131c8.359,0,15.133-6.797,15.133-15.175H15.734C15.734,42.333,22.509,49.131,30.865,49.131"/>
</svg>
