<svg xmlns="http://www.w3.org/2000/svg" width="96" height="94.4" viewBox="236.6 232.8 96 94.4" enable-background="new 236.6 232.8 96 94.4"><path d="M236.7 280c0-15 7.1-28.3 18.1-37 10.8 13 19 32.1 19 51.6 0 9.6-2.5 21-5.5 29.8-18.4-6.6-31.6-24-31.6-44.4z" fill="#1B75BB"/><path d="M299.5 325c-4.6 1.5-9.6 2.3-14.8 2.3-1.6 0-3.1-.1-4.6-.2l-.2-13.3c0-7.6.6-15.4 2.8-22.7 0 0 4.1 12.3 10.7 24.5 1.4 2.6 3.9 6.3 6.1 9.4z" fill="#1B75BB"/><path d="M320.2 248.6c8 8.4 12.4 18.9 12.4 31.4 0 17.5-9.7 32.8-24 40.9-7.8-8.3-14.1-21.4-14.1-33.6 0-16.5 10.7-30.7 23.6-38.5.9-.5 1.9-.5 2.1-.2z" fill="#1B75BB"/><path d="M259.9 239.6c7.3-4.3 15.7-6.8 24.8-6.8 11.7 0 19.7 2.7 28.1 9.6-7 7.6-11.3 12.3-21.1 20.6-10.4 8.7-11.1 6.2-17.1-1.6-4.7-6-10.3-14.9-14.7-21.8z" fill="#1B75BB"/><path d="M295 249.5c-.9-1.4-3.7-2.4-5.1-2.6-2.7-.4-5.6-.7-8.4-.8-4.3-.1-4.5 1.9-3.4 5.1.3.8 2.9 7.1 4.6 6.8 2.1-.2 10-6.6 12.3-8.5z" fill="#fff"/></svg>